{"title":"Underworld Awakening 1080p BluRay Dual Audio By Ashish7(wall.e)","uid":7481837,"size":6101081785,"categoryP":"video","categoryS":"hd___movies","magnet":"?xt=urn:btih:2b28732877bc3938307f23f73e1ebdf08a917622&amp;dn=Underworld+Awakening+1080p+BluRay+Dual+Audio+By+Ashish7%28wall.e%29&amp;tr=udp%3A%2F%2Ftracker.openbittorrent.com%3A80&amp;tr=udp%3A%2F%2Fopen.demonii.com%3A1337&amp;tr=udp%3A%2F%2Ftracker.coppersurfer.tk%3A6969&amp;tr=udp%3A%2F%2Fexodus.desync.com%3A6969","seeders":0,"leechers":0,"uploader":"wall.e","files":13,"time":1343457883,"description":"Format                           : Matroska\nFile size                        : 5.62 GiB\nDuration                         : 1h 28mn\nOverall bit rate                 : 9090 Kbps\n\nVideo\nID                               : 1\nFormat                           : AVC\nFormat/Info                      : Advanced Video Codec\nBit rate                         : 6759 Kbps\nWidth                            : 1920 pixels\nHeight                           : 800 pixels\nDisplay aspect ratio             : 2.40:1\nFrame rate                       : 23.976 fps\nColor space                      : YUV\nChroma subsampling               : 4:2:0\nStream size                      : 4.18 GiB (74%)\nTitle                            : 1080p BluRay ~ Ashish7(wall.e)\n\nAudio #1\nID                               : 2\nFormat                           : DTS\nFormat/Info                      : Digital Theater Systems\nCodec ID                         : A_DTS\nBit rate                         : 1510 Kbps\nChannel(s)                       : 6 channels\nChannel positions                : Front: L C R, Side: L R, LFE\nSampling rate                    : 48.0 KHz\nBit depth                        : 16 bits\nStream size                      : 957 MiB (17%)\nTitle                            : 5.1 DTS English Audio ~ Ashish7(wall.e)\n\nAudio #2\nID                               : 3\nFormat                           : AC-3\nFormat/Info                      : Audio Coding 3\nBit rate mode                    : Constant\nBit rate                         : 640 Kbps\nChannel(s)                       : 6 channels\nChannel positions                : Front: L C R, Side: L R, LFE\nSampling rate                    : 48.0 KHz\nBit depth                        : 16 bits\nStream size                      : 405 MiB (7%)\nTitle                            : 5.1 Untouched Hindi Audio ~ Ashish7(wall.e)\n\nText\nID                               : 4\nFormat                           : UTF-8\nCodec ID                         : S_TEXT/UTF8\nCodec ID/Info                    : UTF-8 Plain Text\nLanguage                         : English","torrent":{"xt":"urn:btih:2b28732877bc3938307f23f73e1ebdf08a917622","amp;dn":"Underworld+Awakening+1080p+BluRay+Dual+Audio+By+Ashish7%28wall.e%29","amp;tr":["udp%3A%2F%2Ftracker.openbittorrent.com%3A80","udp%3A%2F%2Fopen.demonii.com%3A1337","udp%3A%2F%2Ftracker.coppersurfer.tk%3A6969","udp%3A%2F%2Fexodus.desync.com%3A6969"],"infoHash":"2b28732877bc3938307f23f73e1ebdf08a917622","infoHashBuffer":{"type":"Buffer","data":[43,40,115,40,119,188,57,56,48,127,35,247,62,30,189,240,138,145,118,34]},"announce":[],"urlList":[]}}